<?xml version="1.0" encoding="utf-8"?>
<!-- Generator: Adobe Illustrator 17.1.0, SVG Export Plug-In . SVG Version: 6.00 Build 0)  -->
<!DOCTYPE svg PUBLIC "-//W3C//DTD SVG 1.1//EN" "http://www.w3.org/Graphics/SVG/1.1/DTD/svg11.dtd">
<svg version="1.1" id="Layer_1" xmlns="http://www.w3.org/2000/svg" xmlns:xlink="http://www.w3.org/1999/xlink" x="0px" y="0px"
	 viewBox="0 0 1024 2000" enable-background="new 0 0 1024 2000" xml:space="preserve">
<path d="M570.8,939.3c0,38.6,0,76.9,0,115.4c-38.5,0-76.7,0-115.4,0c0-38.3,0-76.7,0-115.4C493.6,939.3,532,939.3,570.8,939.3z
	 M460.2,1049.7c35.5,0,70.5,0,105.4,0c0-35.4,0-70.4,0-105.4c-35.3,0-70.3,0-105.4,0C460.2,979.5,460.2,1014.4,460.2,1049.7z"/>
<path d="M549.7,952.8c1,1.6,1.6,2.7,2.6,4.4c-24.5,12.8-48.8,25.4-74,38.5c23,13.3,45.3,26.1,67.9,39.2c-0.9,1.6-1.6,2.8-2.3,4
	c-0.8-0.3-1.3-0.3-1.7-0.6c-22.6-13-45.3-26-67.9-39.1c-1.3-0.8-3-2.5-3-3.8c0-1.2,1.8-2.8,3.1-3.5
	C499.4,978.9,524.3,966,549.7,952.8z"/>
</svg>
