<?xml version="1.0" encoding="utf-8"?>
<!-- Generator: Adobe Illustrator 18.1.1, SVG Export Plug-In . SVG Version: 6.00 Build 0)  -->
<svg version="1.1" id="Layer_1" xmlns="http://www.w3.org/2000/svg" xmlns:xlink="http://www.w3.org/1999/xlink" x="0px" y="0px"
	 viewBox="0 0 800 1280" enable-background="new 0 0 800 1280" xml:space="preserve">
<path d="M356.8,1048.7c-0.4-6.8-1-13.7-1.2-20.5c-0.3-8.6-0.3-17.2-0.3-25.8c0-16.2-0.3-32.5,1.1-48.7c1.7-19.1,1.7-38.2,0.6-57.4
	c-1-16.5-0.8-33.1-1.3-49.6c-0.5-16.8-1-33.6-1.9-50.4c-1.1-20.4-1.8-40.8,0-61.2c0.9-10.7,2-21.4,2.6-32.1c0.1-2.2-1-4.8-2.4-6.6
	c-4.9-6.6-10.1-12.9-15.3-19.4c-2,1.7-2,6.4-6.6,4.3c0.1-0.5,0-1,0.3-1.3c2.7-3.3,2.3-6.6,0.8-10.5c-3.4-9-6.5-18.2-9.4-27.4
	c-2.1-6.8-4.5-13.7-5.5-20.7c-2-14.8-3.3-29.8-4.4-44.7c-0.7-9.7-0.6-19.5-0.9-29.2c-0.1-1.9-0.4-3.9-0.4-5.8
	c0.1-2.4,0.4-4.8,0.7-7.2c0.3-2.1,0.9-4.2,1.1-6.3c1.7-17.4,3.2-34.8,5-52.2c1.4-13.6,2.8-27.3,4.5-40.9c0.9-7.3,2.4-14.5,3.8-21.7
	c1.5-7.3,3.6-14.5,5-21.9c0.5-2.4,0.2-5.1-0.5-7.4c-2-6.8-4.1-13.5-6.8-20c-2.9-7-6.5-13.8-9.9-20.6c-1-1.9-2-3.8-4.9-3.8
	c-1.6,0-3.2-1.8-4.9-2.1c-1.3-0.3-2.9,0.5-4.3,0.8c-1.6,0.4-3.2,0.8-4.8,1.2c-0.3-0.2-0.5-0.4-0.8-0.7c-0.6,3.1-1.4,6.2-1.9,9.4
	c-0.9,5-1.7,10.1-2.5,15.1c-1.4,9.7-2.8,19.5-4.1,29.3c-1.5,10.8-3.1,21.6-4.4,32.5c-1,8.3-1.5,16.6-2.1,24.9
	c-0.9,13.6-1.9,27.2-2.6,40.8c-0.7,13.3-1.5,26.7-1.4,40c0.1,9.7,1.6,19.4,2.4,29.1c0.2,2.3,0.3,4.6,0.5,6.9
	c0.8,7.3,1.7,14.5,2.6,21.8c0.4,3.3,0.8,6.5,1.2,9.8c0.1,0.6,0.1,1.3-0.2,1.7c-2.4,3.4-1.1,7.1-0.8,10.7c0.4,5.1,0.5,10.2,1.1,15.3
	c0.8,7.1,1.8,14.2,2.9,21.2c0.5,3.1,1.2,6.1,1.9,9.1c1.5,6.3,4.9,11.4,9.8,15.7c-0.2,0.3-0.3,0.5-0.5,0.8c-1.2-0.6-2.4-1.3-3.5-1.9
	c-5-2.9-7.9-7.1-8.9-12.8c-0.9-5.2-2.4-10.4-3.1-15.6c-0.9-6.5-1.3-13-1.7-19.6c-0.6-8.7-0.8-17.4-1.6-26c-0.4-4.8-1.5-9.5-2.3-14.3
	c-0.3-1.6-0.5-3.2-0.7-4.9c-0.4-5.7-0.8-11.4-1-17c-0.5-13.7-0.9-27.4-1.2-41.1c-0.1-5.2,0-10.4,0.2-15.7c0.2-4,1-8.1,1.3-12.1
	c0.3-4.8,0.3-9.6,0.6-14.5c0.6-10.2,1.1-20.5,1.9-30.6c1.1-12.6,2.3-25.2,3.7-37.8c1.4-11.7,3.2-23.3,4.9-35
	c1.6-10.8,3.3-21.7,5.2-32.5c0.2-1.4,1.9-2.6,2.9-3.8c0.3-0.4,0.9-0.7,1.2-1.1c3.6-6.4,5.1-13.3,5.5-20.5c0.2-3.9,0.5-7.9,0.8-11.8
	c0.3-2.7,0.5-5.4,1.2-8c0.3-0.9,1.8-1.8,2.9-2.1c0.8-0.2,2.4,0.5,2.7,1.2c0.7,2.2,1.1,4.5,1.3,6.8c0.9,9,1.3,18.2,2.7,27.1
	c0.5,3.4,3.1,6.5,4.7,9.7c1.8,3.5,3.6,7,5.2,10.6c3.2,7.1,6.3,14.3,9.3,21.5c1.1,2.6,1.9,5.4,3.2,8.1c4.7-15,8.9-29.9,14.1-44.6
	c0.4,0.1,0.9,0.3,1.3,0.4c-1.4,4.7-2.7,9.3-4.1,14c-2.1,6.8-4.2,13.6-6.3,20.4c-0.9,2.9-1.7,5.7-2.3,8.7c-0.4,1.8-0.5,3.6-0.9,5.4
	c-0.4,1.5-1,3-1.5,4.5c-1,3.2-2.3,6.3-3,9.6c-1.6,7.2-3.3,14.5-4.4,21.8c-1.4,8.9-2.4,17.8-3.4,26.7c-1.7,14.6-3.4,29.1-5,43.7
	c-0.6,5.7-0.6,11.4-1.4,17c-2,14-1.2,28-1,42c0,2.3-1.4,4.6-1.4,6.9c0.1,6.8,0.4,13.7,1,20.5c1,10.8,3.1,21.5,3.3,32.3
	c0.2,12.5,3.8,24,7.5,35.6c1.2,3.8,1.9,7.8,3.4,11.4c2,4.8,4.6,9.3,6.9,14c4.4,9.1,12.4,15.5,17.7,23.9c0.3,0.4,0.6,1,1,1
	c3.8,0.4,2.9,2.9,2.7,5.4c-1.2,14-2.5,27.9-3.3,41.9c-1.3,20.6,0.3,41.2,1.3,61.7c0.8,15.6,0.6,31.3,1.1,47c0.5,20,1.6,40,1.8,60
	c0.2,12.6-0.7,25.3-1.2,37.9c-0.3,8.5-0.8,17-1.1,25.5c-0.2,6-0.4,12-0.3,18c0.2,10,0.7,20.1,0.9,30.1c0.2,7.5,0.2,15,0.1,22.6
	c0,1.5-0.6,2.9-0.9,4.4C357.6,1048.8,357.2,1048.8,356.8,1048.7z M306.8,310.4c-0.4,0-0.8,0-1.2,0c-0.4,5.5-0.9,11-1.3,16.5
	c-0.1,0.8-0.1,1.9,0.4,2.5c0.4,0.6,1.3,0.9,2.1,1c0.6,0.1,1.2-0.4,1.8-0.7c-0.4-3.3-0.8-6.6-1.1-9.8
	C307.1,316.8,307,313.6,306.8,310.4z"/>
<path d="M393.2,1055.3c-0.5-3.4-1.1-6.7-1.5-10.1c-1-8.3-0.1-16.6,1.1-24.9c2-13.8,2.2-27.7,1.7-41.7c-0.5-16-0.2-32.1-1.5-48.1
	c-1.1-13.9,0.4-27.7-0.1-41.5c-0.5-13.2-1.2-26.5-1.6-39.7c-0.6-15.6-0.8-31.1-1.6-46.7c-0.5-9.5-1.7-18.9-2.3-28.3
	c-0.6-9.3-0.9-18.5-1.1-27.8c-0.2-8.5-0.4-17-0.3-25.5c0.1-8.1,0.7-16.2,0.9-24.3c0.2-8.6,5-15.3,9.2-22.2c1.9-3,3.4-6.2,5.2-9.3
	c2.1-3.6,4-7.3,6.4-10.6c4.8-6.7,7.3-14.4,9.7-22.1c1.4-4.5,2.8-9.1,3.9-13.7c1.6-6.8,3.1-13.6,4.5-20.4c1.1-5.4,2.1-10.9,3.1-16.4
	c2-11.1,4.3-22.1,5.6-33.2c1.6-12.9,2.5-26,3.1-39c0.6-12.9,0.3-25.9,0.7-38.8c0.3-10.9,1.5-21.8,1.5-32.7
	c-0.1-15.9-0.3-31.9-3.2-47.7c-2-11-2.8-22.3-4.5-33.4c-1.8-12.6-6.4-24.3-13.2-35c-3.9-6.2-8.9-11.7-15.1-15.8
	c-2-1.4-4.3-2.3-6.9-3.6c0,3,0,6,0,9.1c-0.3,0-0.7,0.1-1,0.1c-0.6-1.6-1.2-3.1-1.8-4.7c-1.5-4.2-6.2-5.9-10.1-3.5
	c-2.3,1.4-4.7,1.5-6.9-0.3c-0.6-0.5-1.1-1.5-1-2.1c0.9-3.8,2.2-7.4,3.1-11.2c1.6-6.1,2.3-12.4,4.6-18.2c2.7-6.6,1.8-13.3,2.7-19.9
	c0.7-4.7-0.1-9.6-0.1-14.4c0-1.4,0.3-2.9,0.8-4.2c0.3-0.8,1-1.4,1.6-2.1c0.7,0.6,1.8,1.1,2,1.9c0.6,2.6,1,5.3,1.2,8
	c1,13.6,2,27.2,3,40.8c0.4,5.4,0.4,10.8,0.8,16.2c0.1,1.1,1.4,2.8,2.4,3c8.5,2.3,14.9,7.5,20.3,14.2c0.2,0.2,0.5,0.3,1.1,0.8
	c1-2.3,2.1-4.4,3.1-6.6c0.2,0.1,0.5,0.1,0.7,0.2c0,2.2,0.2,4.4,0,6.6c-0.4,3.3,0.4,6.2,2,9.1c5.2,9.5,9.3,19.3,10,30.3
	c0.6,9,1.2,18,3.1,26.8c4.3,19.9,4.6,39.9,4,60c-0.5,16.8-1.3,33.6-1.9,50.4c-0.2,5.6,0.2,11.2,0.2,16.8c0,5.5,0,11-0.6,16.5
	c-1,9.2-2.3,18.4-3.6,27.5c-0.9,6.5-1.9,13-3.1,19.4c-0.7,3.9-2.1,7.6-2.7,11.5c-0.9,5.7-2.3,11.3-4.1,16.7
	c-0.1,0.4-0.1,0.8-0.1,1.2c-0.7,5.1-1.2,10.2-2.2,15.3c-0.5,2.5-1.9,4.8-2.6,7.2c-1.4,4.9-2,10.2-4.1,14.8c-2.3,5.1-4.4,10.3-7.7,15
	c-4.5,6.4-9.5,13-9.9,21.4c-0.3,6.7,5.4,15.2,11.8,17.1c0.7-1.3,1.3-2.6,2.3-4.6c0.9,1.2,1.7,1.9,2,2.8c0.5,1.9,1,4,1.1,6
	c1.4,20.3,2.6,40.6,1.8,61.1c-0.6,15,0.3,30,0.3,45c0,7.5-0.7,15.1-0.7,22.6c0,8.2,0.6,16.4,0.8,24.6c0.1,7.2-0.2,14.3-0.1,21.5
	c0.2,8.5,0.7,17,1.2,25.5c0.2,4.3,0.9,8.7,1.1,13c0.4,8.7,0,17.4,1,26c1.4,12.7,1.3,25.4,4,38c1.5,7,1.1,14.4,1.6,21.6
	c0.2,3.7,0.2,7.3,0.6,11c0.3,2.6,0.2,4.8-2.8,6.8c-0.4-1.6-1.1-2.9-1.1-4.3c0.1-4.5,0.8-9.1,0.5-13.6c-0.8-10.6-2.3-21.2-3-31.8
	c-1.1-15.8-1.9-31.6-2.8-47.5c-0.6-11.1-1.4-22.2-1.7-33.3c-0.6-20.3-1-40.6-1.2-60.9c-0.2-22.5-0.1-45.1,0.2-67.6
	c0.2-14.4,0.6-28.8-1.8-43.2c-0.7-4.2-1.1-8.4-1.9-12.6c-0.4-2.2-1.8-3.2-4.1-4.2c-5.1-2.1-9.2-5.9-12.2-10.7
	c-0.7-1-1.3-2.1-2.2-3.5c-2.8,7.1-5.7,13.4-5.5,20.7c0.2,10.1-0.5,20.3-0.4,30.5c0.1,18.6,1.3,37.1,3.2,55.6
	c1.3,13,0.9,26.1,1.4,39.1c0.3,9.1,0.9,18.2,1.2,27.3c0.3,9.4,0.5,18.8,0.6,28.2c0.1,9.6-0.4,19.2,0,28.7c0.6,17.2,2,34.4,2.3,51.6
	c0.3,15.9-0.2,31.7-0.7,47.6c-0.3,8.6-1.7,17.1-2.1,25.7c-0.2,4.9,0.5,9.8,0.7,14.8c0.1,1.3-0.3,2.7-0.5,4
	C394.3,1055.3,393.8,1055.3,393.2,1055.3z M390.5,257.7c-0.3,0.1-0.5,0.2-0.8,0.3c-0.7,2.9-1.5,5.8-2.2,8.7
	c-1.5,5.9-3,11.9-4.3,17.9c-0.7,2.9-1.3,5.9-1.4,8.8c-0.2,5.7,1.1,6.8,6.8,6.8c3.6,0,3.9-0.4,3.8-4c-0.2-6.8-0.1-13.7-0.3-20.5
	c-0.1-4.4-0.2-8.9-0.5-13.3C391.4,260.7,390.8,259.2,390.5,257.7z"/>
<path d="M432.4,291.5c0.9-1.1,1.8-2.2,2.7-3.3c4.2-5.5,8.3-11.2,12.8-16.5c1.9-2.2,4.7-4.2,7.5-5.2c6-2.2,10.6-6.2,14.9-10.6
	c1.3-1.4,1.8-3.8,2.2-5.8c1.3-7,2.3-14,3.5-21.2c-0.3,0-0.1,0,0.2,0c5.1-0.5,5.4-0.5,6.5,4.8c1,4.8,1.2,9.8,2.1,14.6
	c1.1,5.5,2.6,10.9,4,16.3c0.3,1,1,2.3,1.8,2.8c5.6,3.8,7.9,9.8,9.8,15.7c2.4,7.4,4,15.1,5.6,22.8c2.4,12.1,4.6,24.3,6.5,36.6
	c2.7,17.3,3.7,34.8,4.2,52.3c0.1,4,1,7.9,0.9,11.8c-0.1,9.8-0.9,19.5-0.7,29.2c0.3,19.5-0.4,39,1.2,58.5c0.5,6-0.6,12.1-1.2,18.2
	c-1.4,14.7-2.8,29.4-4.4,44.1c-0.6,6-1.6,11.9-2.5,17.8c-0.1,0.9-0.4,1.9-0.8,2.8c-3.4,7.5-6.1,15-6.8,23.4c-0.4,4.4-2.5,8.9-4.4,13
	c-2.9,6.4-6.3,12.6-9.4,18.9c-1.7,3.5-2.7,7.2-4.5,10.6c-2.4,4.6-5.1,9.1-8,13.3c-2.7,3.9-5.9,7.5-8.9,11.2c-1,1.2-2,2.4-2.8,3.7
	c-3.6,5.5-8.3,9.7-14.2,12.6c-4.6,2.3-8.7,5.6-11.5,9.7c-1.4,2.1-1.6,5.6-1.2,8.4c2.2,15.1,1.1,30.3,0.8,45.5c0,1.2-0.1,2.3,0,3.5
	c0.4,14.9,0.6,29.8,1.3,44.6c0.6,11.9,1.8,23.7,2.8,35.6c1.4,16.8,3.2,33.5,4.3,50.3c1.2,18.1,1.9,36.3,2.7,54.5
	c0.6,14.5,1.3,29,1.6,43.5c0.2,8.8-0.5,17.6-0.4,26.4c0.1,7.8,0.7,15.7,1.1,23.5c0.1,1.2-0.1,2.4-0.2,3.6c-0.3,0.1-0.7,0.2-1,0.2
	c-0.5-1.2-1.3-2.4-1.3-3.7c-0.7-16.4-2.3-32.8-0.9-49.3c0.8-9.6-0.5-19.3-0.9-29c-0.6-15.8-1-31.5-1.7-47.3
	c-0.3-6.9-1.2-13.9-1.8-20.8c-1.1-13.6-2.2-27.2-3.4-40.7c-1.1-13.1-2.4-26.2-3.4-39.3c-0.4-4.6-0.1-9.3-0.2-13.9
	c-0.5-12.2-1.4-24.3-1.7-36.5c-0.2-7.4,0.5-14.9,0.7-22.3c0.1-2.7-0.1-5.4-0.1-8.1c0-3.1,0.2-6.2-0.1-9.2
	c-0.6-5.8-1.4-11.5-2.2-17.3c-0.6-4.1-0.3-5.5,3.7-6.6c3.4-1,4.4-3.6,5.6-6c2.1-4,2-4.1,6.3-3.4c0.9,0.1,1.9-0.3,2.7-0.7
	c4.6-1.7,7.7-5.1,10.5-9.1c2.8-4,6.3-7.5,9.1-11.4c3.1-4.4,5.9-9,8.5-13.7c2.2-3.9,3.8-8.2,5.8-12.2c0.8-1.7,2.2-3.2,3-4.9
	c2.4-4.9,4.9-9.8,6.8-14.9c1.5-4,2.3-8.4,3.5-12.5c1.9-6.6,4-13.2,5.8-19.9c1.4-5.4,3-10.8,3.7-16.3c1.7-15,3.1-30,4.3-45
	c0.8-8.8,1.3-17.7,1.6-26.6c0.2-5.2-0.5-10.4-0.6-15.6c-0.2-10.2-0.5-20.5-0.4-30.7c0.1-11.4,0.9-22.8,0.8-34.2
	c-0.1-9.4-1.2-18.7-1.4-28.1c-0.3-15.5-2.4-30.8-5.1-46.1c-2-11.1-3.9-22.3-5.6-33.5c-1.5-10-4.3-19.6-9.1-28.6
	c-0.6-1.2-1.4-2.4-2.4-3.2c-6.9-5.2-8.6-12.7-9.3-20.6c-0.4-4.1-0.7-8.3-1.2-12.4c-0.1-0.7-0.8-1.3-1.3-1.9
	c-0.4,0.6-1.1,1.1-1.3,1.8c-0.6,2.5-1.3,5.1-1.5,7.6c-0.2,3.9-3.5,6.2-4.5,9.5c-1.5,5.2-5.3,7.3-9.9,9.4c-6.3,2.9-12,6.8-16.3,12.4
	c-2.8,3.5-5.6,7-8.5,10.4c-1,1.1-2.3,1.9-3.5,2.8C432.9,292,432.7,291.8,432.4,291.5z"/>
<path d="M299.5,672.9c0.9-0.2,2-0.7,2.6-0.4c2.6,1.3,5,2.9,7.5,4.3c2.3,1.2,2.5,3.1,2.3,5.4c-0.8,8.4-1.5,16.9-2.2,25.3
	c-0.8,10.4-1.7,20.8-2.4,31.2c-0.2,2.5,0,5,0,7.5c-0.3,13.7-0.5,27.4-0.9,41.1c-0.2,6.4-0.4,12.8-0.8,19.1
	c-0.5,8.8-1.2,17.5-1.5,26.3c-0.2,5.6,0.3,11.2,0.2,16.8c-0.1,6.3-0.7,12.5-0.8,18.8c-0.1,5.3,0.2,10.6,0.1,15.9
	c-0.3,10.8-0.9,21.6-0.9,32.5c-0.1,8.4,0.5,16.8,0.8,25.2c0.3,9,0.5,18,1.1,26.9c0.8,14.4,1.9,28.7,2.7,43.1c0.2,3.3,0,6.6,0,9.9
	c-0.4,0.1-0.7,0.1-1.1,0.2c-0.4-1.1-1.1-2.1-1.2-3.3c-1-7.6-2.2-15.1-2.7-22.7c-0.9-13.9-1.4-27.8-1.8-41.7
	c-0.5-13.2-0.9-26.5-0.9-39.7c-0.1-14,0.2-28,0.5-42.1c0.2-14.2,0.4-28.4,0.9-42.6c0.4-10.7,1.2-21.4,1.9-32
	c0.6-9.3,1.2-18.6,0.5-27.9c-0.5-5.9,0.6-12,0.2-18c-0.6-7.5,1-14.8,1.7-22.2c0.8-9.5,1.1-19.1,1.7-28.6c0.4-5.9,1-11.7,1.2-17.6
	c0.1-3-0.9-5.7-3.9-7.1c-1.6-0.8-3.1-1.8-4.6-2.6C299.4,673.5,299.5,673.2,299.5,672.9z"/>
<path d="M330.6,680.5c0.4,3.1,1,6.2,1.2,9.3c0.1,3.6-0.2,7.3-0.2,11c0,2,0.1,4.1,0.3,6.1c1,9.3,2.3,18.6,3,27.9c0.6,8,0.5,16,0.8,24
	c0.1,3.6,0.3,7.2,0.8,10.7c1.3,8.1-1.2,15.8-1.6,23.8c0,0.2-0.1,0.4-0.1,0.6c1.2,7.6-1,15-1.5,22.5c-0.6,9.4-0.1,18.9-0.2,28.3
	c0,2.3-0.8,4.5-1,6.8c-0.2,4.1-0.1,8.3-0.3,12.4c-0.2,4.2-0.7,8.4-0.9,12.6c-0.1,3.6,0,7.1,0,10.7c0,1.7,0,3.5-0.1,5.2
	c0,4.9-0.1,9.8-0.1,14.7c0,1.2,0.6,2.4,0.2,3.4c-2.4,7-1.5,14.2-1.5,21.3c0,15.5,0,31.1-0.1,46.6c0,2.7-0.1,5.4-0.5,8.1
	c-1.1,6.8-0.2,13.3,1.6,19.8c0.3,1,0.1,2.6-0.5,3.4c-1.3,1.4-3.5,0.4-3.7-1.8c-0.9-7.5-1.4-14.9-0.6-22.5c0.9-8.1,0.6-16.4,0.7-24.6
	c0.1-4.6-0.1-9.3,0-13.9c0.1-7.3,0.1-14.5,0.3-21.8c0-2.2,0.3-4.4,0.4-6.6c0.2-4.5,0.2-9.1,0.4-13.6c0.5-10.8,1.3-21.6,1.7-32.4
	c0.2-5-0.1-10.1,0.1-15.1c0.4-11.7,0.7-23.4,1.3-35c0.3-5.8,1.3-11.5,1.8-17.3c0.6-6.8,1.1-13.7,1.3-20.5c0.2-5.9,0-11.8-0.3-17.7
	c-0.4-8.2-0.8-16.4-1.5-24.6c-0.8-10.1-2-20.2-2.9-30.3c-0.3-2.9-0.3-5.8-0.3-8.7c-0.1-6.3-0.1-12.5,0-18.8c0-1.2,0.4-2.5,0.7-3.7
	C329.8,680.5,330.2,680.5,330.6,680.5z"/>
<path d="M427.1,303.1c-0.9,1.8-1.7,3.7-2.6,5.5c-0.3-0.1-0.6-0.2-0.8-0.3c0.8-1.9,1.6-3.8,2.4-5.6
	C426.5,302.8,426.8,303,427.1,303.1z"/>
</svg>
