<?xml version="1.0" encoding="utf-8"?>
<!-- Generator: Adobe Illustrator 18.1.1, SVG Export Plug-In . SVG Version: 6.00 Build 0)  -->
<svg version="1.1" id="Layer_1" xmlns="http://www.w3.org/2000/svg" xmlns:xlink="http://www.w3.org/1999/xlink" x="0px" y="0px"
	 viewBox="0 0 800 1280" enable-background="new 0 0 800 1280" xml:space="preserve">
<path d="M594.9,347.6c8.3,0.2,14.7,5.8,15.6,13.2c0.8,6.5-2.9,13.3-8.7,16c-0.9,0.4-1.7,0.8-2.6,1.1c-6.6,2.5-11.3,2.5-17.4-5.8
	c-4.3-5.7-2.5-11.6,0.1-16.9C584.3,350.2,589.1,347.7,594.9,347.6z"/>
<path d="M564.9,329.1c8.3-0.9,14.9,10.2,11.8,17.3c-1.4,3.2-3.2,6.3-4.9,9.3c-2.3,4.1-6.2,5.9-10.5,7.1c-2,0.5-3.9,0.4-5.4-1
	c-2.7-2.6-5.5-5.2-7.8-8.1c-2-2.6-2.1-5.8-0.6-8.9c0.9-2,2-3.9,2.7-5.9C552.8,332,558,329.2,564.9,329.1z M570,343.8
	c0-1.5-1-2.5-2.5-2.5c-1.9,0-4,1.5-4,2.8c0,1.2,2,2.5,3.7,2.5C568.7,346.7,569.9,345.4,570,343.8z"/>
<path d="M548.8,387.1c0.1-1.2,0.1-2.4,0.2-3.6c0.4-3.7,2.2-6.3,5.7-7.7c1.5-0.6,3-1.2,4.4-1.9c2.4-1.3,4.5-0.8,6.4,0.8
	c7.5,6.8,8.1,15.3,1.8,22.5c-2.3,2.6-5.2,3.6-8.4,2.9C550.9,398.3,548.3,395.1,548.8,387.1z M557.9,386c0,3.3,0.9,5.1,2.4,5.2
	c2.2,0.2,2.4-1.7,3-3.2c0-0.1,0.1-0.3,0.1-0.4c0.3-1.7,0.7-3.6-0.8-4.9c-0.5-0.4-1.9-0.7-2.1-0.4C559.3,383.7,558.4,385.3,557.9,386
	z"/>
<path d="M642.1,379.3c-0.4-7.1-1.8-14.3-3.3-21.3c-1.7-7.7-4.4-15.1-5.8-22.8c-2.7-14-7.2-27.5-11.6-41
	c-3.3-10.1-7.9-19.6-14.9-27.8c-3-3.5-6.1-6.9-9-10.5c-7.2-8.7-16.2-15.2-26-20.5c-4.6-2.5-9.7-4-14.6-5.9c-8.6-3.4-17-7.1-26.4-7.9
	c-2-0.2-4.3-1.3-5.7-2.7c-4.4-4.3-8.6-8.7-12.4-13.4c-3.8-4.6-8.9-7.4-14.3-8.8c-5.5-1.4-11.4-2.4-17.3-1.2c-2,0.4-4,0.4-6.1,0.8
	c-10.3,1.6-18.7,6.3-23.6,15.9c-1.1,2.1-2.5,3.4-4.7,4.1c-4.5,1.4-8.4,3.7-12,6.7c-5.7,4.6-11.6,9-17,13.9
	c-5.3,4.7-9.8,10.3-11.5,17.4c-2,8.1-3.5,16.4-5,24.7c-0.3,1.8,0,3.8,0.2,5.7c0.4,3.7,0.1,4.2-3.3,5.4c-0.9,0.3-1.8,0.5-2.8,0.7
	c-4.4,1-8.8,1.7-13,3.2c-2.9,1-6.1,2.5-7.9,4.8c-4.6,5.8-9,11.9-12.4,18.5c-3.2,6.2-5,13.1-7.3,19.8c-4.1,11.8-7.4,23.8-9.7,36.1
	c-0.8,4.3-1.8,8.5-2.5,12.7c-1.1,6.7-1.9,13.4-2.8,20.1c-0.1,1.1-0.4,2.1-0.4,3.2c-0.3,5.7-0.6,6.1-6.3,6.6
	c-0.9,0.1-1.9,0.1-2.8,0.1c-8.7-0.1-17.3,0-26-0.5c-3-0.1-5,0.9-6.5,3.2c-0.8,1.1-1.3,2.4-1.9,3.6c-1.1,2-2.2,2.5-4.3,1.6
	c-0.7-0.3-1.4-0.8-2.1-1.2c-3.4-1.9-6.7-4.4-10.3-5.6c-4.2-1.3-7.6-3.5-10.5-6.5c-1.1-1.2-2.4-1.8-4-1c-1.7,0.8-2.2,2.3-2.1,4.1
	c0.4,5.5,0.8,11.1,1.2,16.6c0.5,6.9,1.1,13.8,1.4,20.6c0.3,7.3,0.3,14.6,0.5,21.9c0.1,3.5,2.1,4.9,5.4,3.8c1.1-0.4,2.4-0.9,3.1-1.8
	c3-3.5,6.7-5.8,10.7-7.9c1.8-0.9,3.2-2.5,4.8-3.7c1-0.8,2.1-1.5,3.8-2.7c0.3,1.9,0.5,3.1,0.7,4.2c0.4,3.6,1.6,4.8,5.2,4.9
	c1.2,0,2.5,0.1,3.6-0.3c6.3-2.5,12.7-0.5,18.9,0.4c5.5,0.8,11,1.7,16.5,1.1c3.3-0.3,3.4,0,5.2,3.3c0.9,1.7,2.2,3.5,3.9,4.5
	c2.2,1.3,2.9,2.8,3,5.2c0.2,5.7,0.5,11.4,1.1,17c0.5,5,1.5,9.9,2.2,14.9c0.6,3.9,0.7,7.9,1.6,11.7c3.6,14.9,8.8,29.3,13.7,43.8
	c3.3,9.7,8.1,18.6,12.8,27.6c1.8,3.5,4,6.7,6,9.9c-2.9,4.9-3,4.9-2.4,10.8c0.4,3.5,1.1,6.9,1.5,10.4c0.7,6.7,1.2,13.5,1.8,20.3
	c0.2,2.4,0.7,4.8,1.1,7.2c1.1,6.5,1.4,13-0.1,19.4c-1.6,6.6-4.1,12.9-6,19.4c-1.8,6.3-3.2,12.6-4.7,18.9c-1.8,7.5-3.4,15-5.1,22.5
	c-1.7,7.9-3.9,15.8-4.9,23.8c-0.8,6.7-0.5,13.5-0.3,20.3c0.2,6.1,0.9,12.1,1.5,18.2c0.8,9,1.7,18.1,2.7,27.1
	c0.2,1.6,0.8,3.2,1.1,4.8c1.2,6.5,2.5,13,3.5,19.5c0.4,2.3,0,4.6,0.2,6.9c0.5,4.8,1.3,9.6,1.9,14.4c0.8,6.9,1.5,13.7,2.3,20.6
	c0.5,4.3,1.1,8.6,1.7,12.9c1.2,10.1,2.5,20.1,3.6,30.2c0.6,5.1,1,10.2,1.4,15.4c0.2,1.6-0.4,2.8-1.9,3.7c-3.8,2.5-6,6.2-7,10.5
	c-0.4,1.6-0.7,3.2-1.3,4.7c-1.1,2.9-2.2,5.8-2.1,9c0,2.4-1.4,4.3-3.8,4.7c-3.8,0.7-7.8,1.2-11.6,1.3c-2.5,0.1-5-1-7.6-1.2
	c-5-0.3-9.2,1.9-13.3,4.5c-1.1,0.7-2.3,1.6-3.6,1.8c-5.2,0.9-10.4,1.7-15.7,2.5c-2.8,0.4-5.4-0.1-7.6-2.1c-2.4-2.2-5.5-2.9-8.5-3.7
	c-1.3-0.3-2.8-0.4-3.9-1c-4.8-2.7-10.2-2.6-15.4-2.7c-1.9,0-4.2,0.7-5.5,1.9c-3.7,3.4-6.9,7.2-10.4,10.8c-0.2,0.2-0.4,0.4-0.6,0.6
	c0,2.6-0.8,5.2-2.3,7.4c0.3,0.7,0.5,1.3,0.6,2c0.9,0.4,1.6,1.4,2.3,3.1c1.5,3.6,3.5,7,5.3,10.4c0.4,0.8,0.8,1.6,1.5,2.9
	c-0.6,0.2-1.1,0.5-1.6,0.7c0.2,0.1,0.4,0.2,0.5,0.3c2.7-0.1,5.3,0.7,7.4,2.2c0.9,0,1.9,0.2,2.8,0.6c5.2,2,10.1,3,14.4-2.1
	c1.2-1.4,3-2.1,5.2-1.4c4.8,1.4,9.6,2.8,14.5,4c6.7,1.6,13.3,2.2,20-0.5c3.3-1.3,7.1-1.6,10.8-1.1c2.9,0.3,6,0.1,8.8-0.4
	c5.3-1.1,10.5-2.8,15.8-3.9c4.1-0.9,5.1-0.3,6.7,3.4c2.5,5.9,6.8,10.7,10.4,15.9c1.3,1.9,3.6,3.5,5.8,4.2c4.4,1.3,8.9,2.2,13.5,2.8
	c4,0.5,8.1,0.8,12.1,0.4c3.2-0.3,6.2-0.6,9.2,0.5c0.3,0.1,0.8-0.1,1.3-0.1c0.3-1,0.5-2,0.9-3.3c5.5-0.6,10.8-1.3,16.2-1.6
	c9.8-0.5,19.5-1.4,29.1-3.3c4.8-0.9,9.6-1.7,14.4-2.5c1.3-0.2,2.5-0.5,3.7,0.8c2.9,3.1,3.5,2.9,6-0.5c0.6-0.8,1.4-1.8,2.3-1.9
	c4.3-0.7,8.6-1.1,12.9-1.6c3.6-0.4,7.5-0.3,10.8-1.5c3.7-1.4,7.5-2.2,11.4-2.8c2.8-0.4,5.6-0.5,8.4-1c3.1-0.6,6.2-0.1,9.3-2
	c2.7-1.6,6.5-2.6,9.3-0.4c2.1-2,3.9-3.8,5.9-5.3c1.7-1.3,2.4-2.8,1.9-4.9c-0.2-1-0.3-2.1-0.3-3.2c0-3.9,0.4-7.9,0.1-11.7
	c-1-10.2-2.1-20.5-3.6-30.7c-1.3-8.6-3.2-17-4.8-25.6c-1.6-8.8-3.1-17.6-4.6-26.4c-0.6-3.5-0.9-7-1.4-10.4c-0.3-2.3-1-4.5-1.3-6.8
	c-0.3-2.2,0.1-4.7-0.7-6.7c-2.3-5.3-3.1-10.9-3.6-16.6c-0.9-9.8-2-19.6-4.2-29.3c-1.2-5.4-2.1-10.9-3-16.4c-1-6.8-1.8-13.7-2.8-20.5
	c-1.3-8.7-2.6-17.4,0.3-26.1c1.2-3.7-1.5-6.5-5.3-5.8c-2.2,0.4-4.1,1.1-5,3.6c-0.8,2.2-2.6,3.3-5.3,3.2c-0.1-1.2-0.3-2.2-0.3-3.3
	c-0.6-10.8-1.1-21.7-1.8-32.5c-0.7-11.4-1.5-22.7-2.3-34.1c-0.2-2.2,0.5-3.8,2.1-5.4c2.3-2.4,4.2-5.3,6.1-8.1
	c3.4-5.2,6.1-10.9,9.9-15.7c5.3-6.5,8.4-14.1,12.3-21.2c2-3.7,3.3-7.7,5.1-11.5c0.5-1.1,1.4-1.9,2.1-2.9c1.1-1.5,2.2-3,3.1-4.6
	c0.6-0.9,0.8-2,1.3-2.9c2.3-4.2,4.8-8.4,7.1-12.6c2.2-4.1,4.1-8.2,6.3-12.3c0.4-0.8,1.3-1.3,1.9-2c1.3-1.5,2.6-3,3.7-4.7
	c1.6-2.6,3.1-5.4,4.6-8.1c0.6-1.1,1.2-2.1,1.7-3.2c2.1-4.9,3.7-9.9,7.1-14.4c3.7-4.9,5.7-11,8.5-16.5c3.1-5.9,4.6-12.6,6.8-19
	c0.6-1.7,1.1-3.3,1.8-5c2.1-5.2,4.4-10.2,6.2-15.4c2-5.9,3.6-11.9,5.3-17.9c1.5-5.3,3.4-10.6,4.2-16.1c1.1-7.7,1.3-15.6,1.9-23.4
	c0.1-1.1,0.3-2.2,0.4-3.2c1-5.9,2.1-11.7,2.9-17.6c1.5-10.2,0.7-20.6,2.6-30.8c1.1-5.8,0.8-11.9,1-17.9
	C641.9,395.8,642.5,387.5,642.1,379.3z M292.9,447.7c-0.1,1.1-0.7,2.3-1.5,3.2c-3.1,3.4-6.3,6.7-9.6,9.9c-1.5,1.5-3,3.1-4.8,4.3
	c-2.9,2-4.6,1.4-5.1-2.1c-0.6-3.9-0.7-7.8-1-11.7c-0.6-8.6-1.1-17.3-1.7-25.9c0,0-0.1,0-0.1,0c0-0.3,0-0.5-0.1-0.8
	c-0.3-4.4,0.7-5,4.9-3.5c6.6,2.3,12.4,6,17.5,10.6c1,0.9,1.8,2.5,1.8,3.8C293.5,439.7,293.3,443.7,292.9,447.7z M298.7,1009.4
	c-2.2,3.2-5,5.2-7.1,5.2c-6.5,0-11.2-3.2-12.6-7.4c-0.3-0.7-0.6-1.8-0.2-2.3c1.6-2.3,3.1-4.9,5.3-6.3c1.7-1.1,4.4-0.8,6.6-0.8
	c1.9,0.1,3.5,1.2,4.6,2.9c1,1.6,2.2,3.1,3.4,4.5C300.1,1006.7,299.8,1007.8,298.7,1009.4z M372.8,1012.1c-9.3,1.1-18.5,2.4-27.8,3.3
	c-5.6,0.6-11.3,0.9-17,0.8c-6.6-0.2-12.7-2.4-19-3.5c-3.8-0.7-5.7-3.2-3.7-7.1c2.1-4.3,1.8-4.4,6.6-3.6c5.3,0.9,10.5,1.5,15.3-1.9
	c0.4-0.3,1-0.4,1.5-0.5c4.3-0.6,8.6-1.5,12.9-1.5c6.6,0,12.9-1.2,19.2-2.7c3.3-0.8,6.9-0.5,10.4-0.6c1.8-0.1,3.7-0.2,6.3-0.4
	c-0.6,5.5-0.1,11,0.8,17C376.2,1011.7,374.5,1011.9,372.8,1012.1z M427.6,242.9c6.3-7.1,13.7-12.8,22.8-15.6
	c2.3-0.7,5.2-0.8,7.6-0.3c4.6,1,9.1,2.5,13.7,3.8c7.2,2.1,13.2,5.9,16.5,12.8c4.6,9.5,7.8,19.2,6.6,30.1c-0.6,5.6-2.7,10.4-4.7,15.4
	c-0.8,2.1-2.9,4-4.8,5.3c-6.2,4.3-13.1,7-20.9,6.9c-5.7-0.1-11.4,0.1-17,0.1c-1.5,0-3.1-0.5-4.6-0.8c-0.1-0.4-0.2-0.9-0.3-1.3
	c0.6-0.4,1.2-0.7,1.7-1.1c7.9-5.9,12.1-13.7,11.8-23.7c-0.1-4.3-0.2-8.7-0.9-12.9c-0.9-5.8-5.5-9.1-9.8-12.4
	c-4.9-3.8-10.3-5.3-16.4-4c-0.6,0.1-1.2-0.2-2.2-0.4C427,244,427.2,243.3,427.6,242.9z M440.6,263.9c-0.4,1.7-2.3,2.7-3.3,2
	c-1.6-1-0.8-2.4-0.1-3.5c0.5-0.9,1.3-1.6,2-2.3c0.4,0.1,0.8,0.1,1.2,0.2C440.5,261.5,440.9,262.8,440.6,263.9z M430.8,279.3
	c-0.4,0.1-0.9,0.2-1.3,0.4c-0.1-0.9-0.3-1.8-0.4-2.6l1-0.2C430.2,277.6,430.5,278.4,430.8,279.3z M329.4,464.8
	c-5.3-0.8-10.7-1.8-16-2.6c-1.4-0.2-2.9,0-4.4,0.1c-1.3,0.1-2.7,0.4-4,0.4c-3.5-0.2-4.4-1.3-4.8-4.7c-1.2-9.9,0.1-19.8,0-29.7
	c0-2.7,1.2-4.4,3.8-5.6c3-1.5,5.9-1.9,9.3-1.7c5.5,0.3,11.1-0.1,16.7-0.2c1.8,0,3.5,0.2,5.3,0.2c3,0,5.9-0.2,8.9-0.3
	c1.3-0.1,2.7-0.2,4-0.2c1.1,0,2.2,0.3,3.2,0.1c7.7-1,15.4-0.7,23.1-1c4.2-0.2,5.1,0.5,6.4,4.6c0,0.1,0,0.3,0.1,0.4
	c4.3,5.3,2.5,11.6,2.9,17.6c0.2,3,0.4,5.9,0.8,8.8c0.4,2.9,0.1,3.8-2.7,5.1c-2.5,1.1-5,1.8-7.9,1.7c-3-0.1-6,0-8.9,0.2
	c-3.1,0.1-5.8-0.7-8.2-2.9c-2.2-2-4.5-3.9-6.9-5.7c-2.9-2.3-5.3-5.1-6.7-8.5c-2.2-5.4-7.2-7.5-11.8-10.1c-0.2-0.1-0.6-0.3-0.8-0.2
	c-4.8,1.7-10.6,0.3-14.5,4.9c-2.8,3.3-3.3,5.8-1.2,9.6c1.6,2.9,3.4,5.5,6.4,7.1c1.6,0.8,2.5,2.7,3.8,4.1c2.5,2.5,5.1,4.8,7.8,7.4
	C332.2,465.3,330.7,465,329.4,464.8z M328.3,448c-0.9-0.3-2.5-0.6-3.9-1.3c-2.4-1.1-3.6-3.8-2.8-6c0.8-2.1,4.1-3.7,6.5-2.7
	c2,0.8,3.9,1.9,5.7,3c1.6,1,1.4,2.5,0.6,4C333.4,447,331.4,448.1,328.3,448z M412.2,1038.7c-3.9-1-7.8-2.1-11.6-3.3
	c-3.5-1.1-6.1-3.4-7.9-6.6c-2.4-4.4-5.6-8.3-6.5-13.4c-0.2-1.1-0.3-2.1-0.4-3.2c-0.3-2.7-0.7-5.3-1-8c-0.3-3.1-0.5-6.2-0.7-9.3
	c-0.1-1.3,0.2-2.8-0.1-4c-0.9-4-0.5-8-0.3-12.1c0.3-4.6,1.9-8.7,3.1-13c0.7-2.5,2.3-4.5,4.8-5.2c6.4-1.9,12.9-3.7,19.6-5.5
	c0.3,0.9,0.6,1.5,0.7,2.2c1,7.2,2.6,14.3,2.8,21.7c0.1,4.3,1.8,8.4,2.4,12.7c0.8,5.9,1.2,11.8,1.8,17.8c0.5,4.6,1.1,9.1,1.8,13.7
	c0.8,4.9,1.9,9.8,2.9,15.1C419.5,1039.1,415.9,1039.6,412.2,1038.7z M485.9,1031.3c-8,1.4-15.9,2.7-24.1,3.2
	c-6.8,0.4-13.5-0.4-20.2,0.1c-1.6,0.1-3.1,0.7-4.7,1.1c-1.9,0.5-3.8,0.9-6,1.4c-0.8-2.2-1.5-3.9-2.1-5.7c-1.9-5.8-2.5-11.9-3.3-17.9
	c-0.5-3.6-0.5-7.3-0.9-10.9c-0.6-5.6-0.8-11.3-3.1-16.6c-0.1-0.2-0.2-0.5-0.3-0.8c-1-7.6-2.1-15.3-2.8-22.9
	c-0.2-2.1,0.4-4.3,0.7-6.4c0.2-1.9,1.4-2.9,3.3-2.9c2.7,0,5.5-0.3,8.1,0.1c3.2,0.4,6.4,0.8,9.6,0.4c2.4-0.3,4.8-0.4,7.1-0.9
	c3.1-0.6,4.2-0.3,5.4,2.6c2.5,6,5,12,7.5,18c0.9,2.2,1.9,4.5,3.1,6.6c0.5,0.9,1.3,1.8,2.2,2.1c1.7,0.6,1.8,1.8,2,3.2
	c1,1,2.1,1.9,2.9,3.1c4.2,5.9,5.9,13,9,19.4c2.3,5,4.4,10,7.9,14.4c1.7,2.2,2.9,4.8,4.5,7.6C489.5,1030.2,487.7,1031,485.9,1031.3z
	 M459,698c2.2,1.9,4.9,2.9,7.9,2.6c1.1-0.1,2.2,0.1,3.2,0.4c3.3,0.9,4.2,2.1,4.2,5.5c-0.2,7.9-0.6,15.7-0.8,23.6
	c-0.1,3.3-0.1,6.5-0.1,9.8c0,2-0.4,3.4-1.8,5.1c-1.8,2.2-2.8,5.2-4.1,7.8c-1.6,3.1-3.2,6.3-5,9.3c-1,1.7-2.3,3.3-3.4,4.9
	c-0.4-0.1-0.9-0.1-1.3-0.2c-1.3-4.5-2.6-9-3.8-13.6c-2.8-10.6-5.1-21.3-9.3-31.5c-1.2-3-2.1-6.2-3-9.3c-0.6-2.1-0.9-4.1,0.1-6.3
	c0.9-2.1,0.5-4.2-0.7-6.2c-0.8-1.5-1.3-3.2-1.5-4.9c-0.2-1.6,1-2.6,2.6-2.3C448,693.8,454.1,693.9,459,698z M444.1,682.8
	c1.2-1.2,2.2-2.4,3.7-3.9c2.5,3.2,4.7,6.1,7.1,9.2C450.5,689.1,447.5,687.7,444.1,682.8z M440.2,729.3c0.4,1.2,0.9,2.3,1.1,3.5
	c0.4,2.4,1.5,4.5,2.4,6.8c1.6,3.8,2.1,8.1,3,12.2c0.3,1.2,0.3,2.4,0.6,3.6c2,7.5,4,14.9,6,22.3c0.2,0.8,0.3,1.6,0.6,2.4
	c0.9,1.8,2.7,2.3,4.4,1.3c0.8-0.5,1.6-1.1,2.1-1.9c1.9-2.9,3.8-5.9,5.4-8.9c1.8-3.3,3.2-6.9,4.9-10.3c0.4-0.8,1-1.5,2-2
	c0.7,5.8,3,11.1,0.9,16.9c-1.9,5.3-2.8,11-4.2,16.5c-0.3,1.3-0.6,2.5-1.1,4.3c-2-0.9-3.6-1.5-5.1-2.2c-1.5-0.7-3.3-1.7-4.5-0.3
	c-1,1.2-2.1,3.4-1.6,4.7c2,5.8,0.6,11.9,1.8,17.8c1.4,7,1.6,14.2,3.8,21.2c1.6,5,1.6,10.4,2.3,15.7c1.4,10.3,2.5,20.7,4.2,31
	c1.1,7.1,2.1,14.2,2.1,21.4c0,0.8,0.2,1.6,0.6,2.3c1.8,3.5,2.3,7.2,2.3,11c0,3.5,0,7-0.1,10.5c-0.1,3.3-1.2,4.7-4.4,4.4
	c-7.6-0.8-15,1.4-22.6,1.6c-1.3-1.2-0.4-2.6,0.1-3.7c1.7-3.8,3.6-7.6,5.5-11.2c0.5-0.9,1.5-1.6,2.4-2.1c2.3-1.5,3.1-3.8,2.2-6
	c-2.7-6.2-2.8-13-3.6-19.5c-0.9-7.6-0.9-15.3-1.3-23c-0.1-1.1-0.1-2.2-0.3-3.2c-0.4-3.3-1.4-6.5,0-9.9c0.7-1.7,0.5-4.1,0-6
	c-1.3-5.2-0.8-10.5-1.3-15.8c-0.6-6.6-1.5-13.2-2.2-19.8c0-0.4-0.2-0.8-0.2-1.2c0.6-5.2-1.6-9.8-3.6-14.3
	c-2.6-5.7-5.1-11.4-7.9-16.9c-1.6-3.3-3.8-6.3-5.5-9.5c-1.9-3.7-3.7-7.5-5.3-11.4c-1.1-2.6-1.9-5.3-4.2-7.3
	c-0.7-0.6-1.1-2.2-0.9-3.2c1.3-5.4,2.9-10.7,4.4-16c1.1-3.8,2.2-7.6,3.4-11.3c1-2.8,2.2-5.5,3.5-8.2c0.4-0.9,1.4-1.5,2.3-2.5
	c1.8,3.2,2.2,6.3,2.9,9.3C438.4,724.5,439.4,726.9,440.2,729.3z M463.6,935.1c-0.2,0.1-0.4,0.3-0.7,0.3c-0.1,0-0.3-0.3-0.4-0.5
	c0.2-0.1,0.5-0.3,0.7-0.3C463.3,934.7,463.4,935,463.6,935.1z M461.1,941.3c-4.6,3.2-9.7,3.9-15.3,4.2c1.4-2.9,3.7-3.5,6.1-3.7
	C454.9,941.5,458,941.5,461.1,941.3z M434.6,791.1c0.6,1.2,0.9,2.5,1.3,3.8c0.5,1.5,0.8,3.2,1.6,4.6c3.9,7.4,5.2,15.3,5.8,23.5
	c0.4,5.4,1.1,10.8,1.5,16.1c0.3,5,0.4,10,0.6,15c0.4,10.3,0.5,20.6,1.5,30.8c0.6,5.6,0.5,11.1,0.6,16.6c0.1,3.1,0.5,6.2,0.7,9.3
	c0.2,2.4-0.4,4.4-2.1,6.3c-2.4,2.8-4.6,5.7-6.4,8.8c-0.8,1.4-0.5,3.3-0.8,5.4c-0.9,0.5-2,0.9-2.6,1.7c-0.5,0.7-0.8,1.9-0.7,2.9
	c0.3,1.7,0.9,3.4,1.4,5c0.4,1.5,0.8,3.1,1.3,4.9c-1.8,0.1-3.4,0.2-5.2,0.2c-1.1-2.9-2.3-5.7-2.1-8.9c0.1-1.2,0-2.4-0.1-3.6
	c-0.6-4.7-1.5-9.4-1.8-14.1c-0.4-5.8-0.3-11.6-0.4-17.4c0-0.5,0.1-1.1,0-1.6c-0.3-3.7-0.3-3.7,1.4-5.8c-0.3-4.4-0.4-8.5-0.9-12.6
	c-0.4-3.3-1.2-6.6-1.8-9.9c-0.3-1.6-0.7-3.2-0.9-4.8c-0.1-0.9-0.5-2.1-0.1-2.8c2.2-3.9,1-7.8,0.3-11.7c-0.3-1.4,0.1-3,0.1-4.4
	c0-1.3,0.2-3-0.5-3.9c-2.1-2.9-2-6.1-2.3-9.3c-0.9-11.2-1.7-22.4-2.6-33.6c0-0.5,0-1.1-0.2-1.6c-2.4-6.3-2-13.1-2.7-19.6
	c-0.6-5.3-1.3-10.5-0.5-15.8c0.1-0.7,0.3-1.5,0.6-2.8c0.9,1.1,1.4,1.6,1.8,2.2C425.3,773,430,782.1,434.6,791.1z M545.6,1020.6
	c-5.9,1.5-11.7,3.2-17.7,4.4c-4.9,1-9.9,1.5-14.9,2.2c-3.3,0.5-6.7,0.9-10,1.5c-2.2,0.4-4,0-5.3-2c-3.5-5.4-7-10.9-10.7-16.2
	c-6.1-8.8-9.6-19-15-28.3c-3.7-6.4-7.2-13-10.7-19.5c-1-1.8-1.6-3.7-2.6-5.5c-2.6-4.9-0.6-7.5,4.4-9.6c2.5-1,5.1-1.8,7.8-2.4
	c4.4-1,6.4-4.3,8.2-7.8c0.6-1.2,1-2.5,1.6-4c3.1,0.7,5.1,3,7.1,5c3.6,3.7,7.2,7.4,10.4,11.4c6.5,7.8,13,15.6,19.1,23.7
	c6.1,8,11.5,16.4,17.5,24.4c4.6,6.2,9.7,12,14.5,18.1c0.7,0.9,1.4,1.8,2.6,3.3C549.4,1019.9,547.5,1020.2,545.6,1020.6z M561.8,962
	c1.3,1.6,2.4,3.7,2.8,5.7c2.3,10.8,3.4,21.7,3.4,32.7c0,3.8,0,7.6-0.1,11.4c-0.1,3-0.7,3.5-3.5,4.1c-0.5,0.1-1.2,0-1.6,0.2
	c-4.4,2.3-6.8,0-9.3-3.4c-3.7-5.1-8-9.9-12-14.9c-2.3-2.9-4.3-5.9-6.4-8.9c-9.2-12.4-18.4-24.8-27.7-37.1c-2.1-2.8-4.7-5.2-7.1-7.8
	c-5.2-5.7-10.2-11.7-15.8-16.9c-4-3.7-3.8-8.3-4.3-12.8c-0.2-2-0.4-4-0.7-6c-1.2-7.5-2.4-15-3.7-22.5c-0.2-1.5-0.6-2.9-0.8-4.4
	c-0.3-2-0.6-3.9-1-5.9c0.3-0.2,0.7-0.4,1-0.7c1.6,1.3,3.3,2.7,4.9,4c2.4,1.9,4.9,3.7,7.3,5.7c2.9,2.4,5.8,4.9,8.5,7.5
	c7,7,13.9,14.1,20.7,21.2c4.9,5.1,9.5,10.4,14.3,15.6c2.9,3.1,5.9,6,8.7,9c4.2,4.4,8.3,8.9,12.5,13.4
	C555.3,954.8,558.7,958.3,561.8,962z M560.9,950.4c-0.3,0.2-0.5,0.3-0.8,0.5c-1-0.8-2.1-1.5-2.9-2.4c-5.8-6.1-11.5-12.3-17.3-18.3
	c-9.1-9.3-18.3-18.5-27.4-27.8c-4.5-4.7-8.7-9.7-13.2-14.3c-3.1-3.2-6.6-6-10-9c-3.1-2.8-6.3-5.5-9.5-8.2c-1.1-1-2.1-2.2-3.4-2.8
	c-2.6-1.3-3.4-3.4-3.8-6.2c-1.2-9.8-2.6-19.6-4.1-29.4c-0.9-5.6-2.4-11.1-3.5-16.7c-0.3-1.5,0-3.2,0-5.8c1.8,1.2,2.9,1.7,3.7,2.5
	c6.2,6.5,13.5,11.8,19,18.9c1.6,2,3.7,3.5,5.6,5.4c7.6,7.5,15.1,15.2,22.8,22.6c6.9,6.7,14,13.2,21.1,19.7c2.4,2.2,4.8,4.4,7.2,6.6
	c1.6,1.5,3.2,3,5.9,2.1C555.1,908.8,557.6,929.7,560.9,950.4z M535.2,793.8c0.8,3.4,1.7,6.6,2.4,9.9c1,5.6,2,11.2,2.8,16.8
	c1,6.7,1.9,13.4,2.9,20.1c1.1,7.2,2.3,14.4,3.5,21.7c0.9,5.6,1.8,11.2,2.7,16.9c0.1,0.7-0.1,1.5-0.1,2.3c-1.9,0.5-2.7-0.8-3.6-1.6
	c-4-3.8-7.9-7.8-12-11.5c-2.9-2.7-6.2-4.8-9-7.6c-7.9-7.8-15.6-15.8-23.5-23.7c-2.2-2.2-4.7-4.1-6.8-6.4c-4.4-4.6-8.4-9.6-12.9-14.1
	c-2.6-2.6-5.7-4.6-8.6-6.8c-1.9-1.4-3.9-2.5-5.8-3.8c-0.9-0.6-1.6-1.6-2.4-2.3c0.1-0.3,0.3-0.6,0.4-0.8c1-0.1,2-0.2,3-0.2
	c2.2,0,4.3,0.1,6.5-0.1c2.2-0.2,4.2-0.5,5.8,1.7c1,1.4,2.9,1.1,4.1,0.2c4.1-3.1,9.1-3.1,13.8-3.9c4.5-0.7,9.1-1.2,13.7-1.7
	c1.7-0.2,3.5-0.5,5.3-0.5c2.9-0.1,5.5-0.7,8.2-2C528.3,794.9,531.6,794.7,535.2,793.8z M475.1,795.2c0.3-2.5,0.6-5.1,0.9-7.6
	c0.3,0,0.6,0,0.9,0c0.6,2.3,0.9,4.7,0.8,7.1c0,0.4-1,0.6-1.5,0.9C475.8,795.5,475.5,795.4,475.1,795.2z M634.2,391.4
	c0.2,7.7,0.8,15.5,0.6,23.2c-0.1,5.5-1.3,11-1.9,16.6c-0.3,3.2-0.6,6.5-0.5,9.7c0.2,7.5-0.4,15-2.6,22.2c-1.3,4.4-1.3,8.8-1.5,13.3
	c-0.1,2.4-0.7,4.8-1,7.1c-0.2,1.2-0.5,2.5-0.2,3.6c0.8,2.8,0.1,5.2-0.6,7.9c-1.6,5.7-2.5,11.7-4.1,17.4c-2.1,7.6-4.3,15.1-6.8,22.5
	c-2,5.7-4.7,11.3-7,16.9c-0.1,0.1-0.2,0.2-0.2,0.4c-0.4,5.4-3.7,9.8-5.2,14.8c-0.9,2.8-2.6,5.3-4,7.9c-0.7,1.3-1.5,2.6-1.9,4
	c-1.5,4.5-2.9,8.9-5.9,12.8c-2.2,2.8-3.3,6.4-5.1,9.6c-1.9,3.4-4.3,6.6-5.8,10.2c-2.4,5.4-6.6,9.7-8.9,15.3
	c-2.5,6.4-6.3,12.3-9.8,18.2c-3.3,5.6-7,11-10.4,16.5c-0.6,0.9-1.1,1.9-1.3,3c-2,7.9-6.7,14.5-10.8,21.3
	c-3.5,5.9-7.6,11.5-11.5,17.2c-0.7,1-1.4,2.1-2.4,2.7c-3.8,2.3-4.8,6-5.2,10c-1.1,10.3-1.1,20.6,0.3,30.8
	c1.5,11.2,2.6,22.3,2.2,33.6c-0.1,2,0.6,4,0.8,6c0.4,3.5-0.3,4-3.6,5c-7.6,2.3-15.5,2.7-23.3,3.5c-3.7,0.4-7.5,0.1-11.4,0.1
	c-0.2-0.8-0.5-1.5-0.6-2.1c-0.9-7.3-1.9-14.5-2.7-21.8c-1.7-14-2.2-28.1-1-42.2c0.2-2.8,0.1-5.7,0.2-8.5c0.4-8.6,0.8-17.3,1.2-25.9
	c0.2-4.3,0.4-8.7,0.4-13c0-7.1,2.5-13.5,5.9-19.6c1.1-1.9,1-3.6-0.1-5.3c-1.3-2.1-3-2.3-4.7-0.6c-0.7,0.7-1.2,1.8-1.6,2.8
	c-0.3,0.9-0.2,1.9-0.6,2.8c-3.5,9.1-4.3,18.7-5,28.3c-0.1,0.8-0.2,1.6-0.4,2.4c-0.2,0.8-0.6,1.5-1.2,2.7c-3-2.2-6-4-8.5-6.3
	c-4.6-4.2-8.9-8.7-13.2-13.2c-1-1.1-1.1-3-1.8-4.4c-0.5-1.2-1-2.6-1.9-3.3c-2.6-2.1-5.2-1.3-5.8,2c-0.7,4.4-3.3,8-5,11.9
	c-0.8,1.9-1.8,3.7-2.5,5.6c-3.6,10.4-7.2,20.7-10.7,31.1c-1,3.1-1.7,6.3-2.8,9.3c-3.2,9.1-6.6,18.1-9.6,27.2
	c-1.5,4.6-2.1,9.3-1.7,14.4c0.4,5.5,0.7,11.1,1.2,16.6c0.8,7.8,1.6,15.7,2.2,23.5c0.8,10.3,1.4,20.6,2.2,30.8
	c0.4,5.1,1.4,10.2,1.5,15.4c0.3,13,1.2,25.9,2.7,38.9c1.5,12.9,1.9,25.9,2.9,38.9c0.2,2.3,0.7,4.5,1,6.8c0.2,1.5,0.3,3,0.3,4.4
	c-0.1,1.7-1,2.5-2.8,2.9c-4.4,0.8-8.7,2-13,2.9c-1.3,0.3-2.7,0.3-4,0.3c-2.1,0-4.3-0.1-6.4,0.1c-2.8,0.2-3.9-0.7-4.3-3.6
	c-0.9-6.1-1.9-12.2-2.9-18.3c0-0.3-0.1-0.5-0.1-0.8c0-10.2-2.7-20.1-3.5-30.2c-1-13.2-3.5-26.3-5.3-39.4c-0.2-1.6-0.3-3.2-0.1-4.8
	c0.7-6.4,0.5-12.5-1.9-18.8c-1.9-4.9-2.9-10.2-3.5-15.4c-1.2-10.1-2.2-20.2-2.7-30.4c-0.4-8.9-0.1-17.9-0.2-26.8
	c-0.1-6.4,2.3-12.2,3.6-18.3c1-4.6,2-9.3,3.1-13.9c1.1-4.8,2.3-9.5,3.5-14.2c1.7-7.1,3.1-14.3,5.1-21.3c1.8-6.5,4.4-12.8,6.4-19.3
	c1.4-4.5,2.5-9.2,3.7-13.7c0.5-1.7,0.9-3.4,1.4-5.1c1.6-5.2,3.2-10.4,5.1-15.4c1.1-3,2.6-5.9,4.4-8.5c1.4-1.9,1.5-3.5,0.2-5.1
	c-1.2-1.6-2.6-3.1-4.1-4.5c-5.3-5-10.8-10-13.8-16.9c-0.3-0.6-0.6-1.3-1.1-1.7c-4.8-4.1-7.2-9.8-9.9-15.3c-1.9-3.7-3.9-7.5-5.6-11.3
	c-1-2.3-1.4-4.9-2.3-7.4c-4.4-12.2-9.3-24.3-11.4-37.3c-0.6-3.3-2.3-6.5-2.4-9.8c-0.4-9.4-3.7-18.4-3.3-27.8c0.1-3-1-6.1-1.5-9.2
	c-0.2-1.1-0.3-2.3-0.4-3.5c0.8-0.2,1.2-0.4,1.5-0.3c8.4,2.6,17,3.3,25.7,3.7c2.8,0.1,5.6,0.9,8.4,1.3c1.7,0.3,3.5,0.2,5.2,0.7
	c4.6,1.2,9.2,2.4,13.6,4.1c2.6,1,5,2.7,7.1,4.6c7.9,7,15.6,14.3,23.5,21.4c7.4,6.6,14.9,13.1,22.6,19.3c6.5,5.3,13.2,10.3,19.9,15.3
	c1.7,1.3,3.7,2.3,5.5,3.4c3.1,1.8,4.7,1.7,7.3-0.9c2.4-2.4,4.4-5.1,6.8-7.6c3.4-3.6,7-7.2,10.4-10.8c4.1-4.3,8.4-8.5,12.3-12.9
	c5.4-6.2,10.6-12.6,15.9-19.1c0.9-1.1,1.6-2.6,2-4c2.9-9.7,5.8-19.5,8.6-29.3c0.7-2.6,0.9-5.3,1.3-8c1.5-9,3-17.9,4.4-26.9
	c0.8-4.8,2.6-9,6.3-12.4c2-1.8,3.5-4.1,5.2-6.3c0.6-0.8,1.3-2,1.2-2.9c-0.1-1.2-0.7-2.7-1.5-3.4c-0.7-0.5-2.4-0.2-3.3,0.3
	c-1.3,0.8-2.4,2.2-3.5,3.4c-2.2,2.4-4.3,4.9-6.7,7.1c-3,2.9-5.1,3.1-8.8,1.1c-0.5-0.3-0.9-0.8-1.4-0.8c-1,0-2.3-0.1-3,0.5
	c-0.6,0.6-0.9,2-0.7,2.9c0.7,2.6,2.9,3.8,5.4,4.3c1.7,0.3,4.3,0.2,4.8,1.1c0.7,1.6,0.4,3.9,0,5.9c-1.1,5.8-2.6,11.6-3.7,17.5
	c-0.7,3.5-0.7,7-1.3,10.5c-0.5,3.2-1.1,6.4-2,9.5c-2,6.6-3.9,13.3-6.4,19.7c-1.6,4.1-4.1,7.9-6.2,11.8c-3.5,6.4-9,11.2-13.6,16.6
	c-3.6,4.2-7.8,7.9-11.7,11.8c-0.7,0.7-1.2,1.5-1.9,2.1c-3.6,3.3-6.9,6.9-10.9,9.7c-3.8,2.7-7.3,2.9-9.9-1.8
	c-0.3-0.6-0.7-1.2-1.3-1.6c-5-3.5-9.9-7-14.9-10.5c-1.2-0.9-2.6-1.5-3.7-2.5c-7.4-6.5-14.9-13-22.2-19.7
	c-6.9-6.3-13.6-12.8-20.5-19.1c-2.5-2.3-5.2-4.4-8.8-4.9c-1-0.2-2.1-0.6-3-1.1c-5.5-3-11.3-4.4-17.5-4.7c-1.7-0.1-3.5-0.7-5.2-0.8
	c-2.8-0.2-5.7-0.2-8.5-0.4c-8.5-0.9-17-1.4-24.7-5.8c-2.1-1.2-3.7-2.7-3.8-5.3c-0.1-2.5-1.8-3.3-4-4.4c-3.8-1.8-7.3-4.6-10.7-7.2
	c-1.5-1.1-1.1-2.7,0.3-3.8c1.8-1.4,3.7-2.6,5.9-4.2c3,2.9,6.3,5.4,8.8,8.5c4.5,5.6,10,8.1,17.1,7c1.6-0.2,3.3-0.1,4.9,0.1
	c6.5,0.8,12.7-0.5,18.9-1.8c1.9-0.4,2.2-1.5,2.1-3.3c-0.2-2.7,0-5.3,0-8.8c1.5,0.7,2.7,1,3.5,1.6c8.4,6.6,17.5,12,27.1,16.5
	c5.9,2.8,12.1,4.8,18.1,7.3c6.4,2.6,12.6,5.8,19,8.1c9.1,3.2,16.6,9,24.5,14.2c2.4,1.5,4.4,3.6,6.5,5.5c3.1,2.7,6.2,4.6,10.5,1.9
	c2-1.2,5-0.6,7-2.7c4.3-4.5,8.8-8.8,11.2-14.7c1.4-3.4,2.5-6.9,3.7-10.4c1.2-3.5,2.5-6.9,3.4-10.4c1.6-6.3,2.2-12.8,2-19.4
	c-0.1-3.1-0.3-6.2-0.5-9.4c0-0.8-0.2-1.7,0.1-2.4c1.9-3.8-0.1-6.1-3-8.1c-5.7-4-10.2-9.3-14.8-14.5c-1.5-1.7-2.2-4-3.2-6.1
	c-0.5-1.1-0.8-2.4-1.6-3.2c-0.6-0.7-2-1.2-2.8-1c-0.7,0.2-1.4,1.7-1.3,2.5c0.4,4.1,1.8,7.9,4.6,11.1c4,4.4,7.9,9,12.1,13.2
	c2.2,2.2,3.3,4.6,3.5,7.5c0.5,8.4,1.5,16.8-0.5,25.1c-0.5,2-1.1,3.9-1.7,5.9c-2.5,7.8-6.5,14.9-10.3,22c-1.8,3.4-4.9,5.5-8.3,6.9
	c-1.4,0.6-3.6,0.4-5.1-0.1c-2.4-0.8-4.8-2-6.8-3.5c-8.8-6.5-18.2-11.8-28.2-16c-11.6-4.9-23.4-9.4-34.8-14.5
	c-6.2-2.8-11.9-6.5-17.7-9.9c-2.3-1.4-4.4-3.1-6.7-4.6c-2.3-1.5-4.4-3.1-5.7-5.6c-0.5-0.9-1.3-1.9-2.3-2.2c-2.4-0.8-2.9-2.4-3.1-4.7
	c-0.4-4.6-0.8-9.2-1.6-13.7c-0.4-2.6-1.3-5.3-2.4-7.7c-1.4-3-4.2-4-7.5-2.9c-3.5,1.2-6.8-0.4-10.3-0.3c-0.2-3.2,1.7-4.5,3.4-5.7
	c5.7-4.1,12.2-5.9,19.2-5.2c4.1,0.4,6-2,7.7-4.8c1.6-2.6,0.3-4.8-2.9-5c-6.5-0.5-13-0.9-19.5-0.1c-3.5,0.4-7,0.8-10.5,0.7
	c-2.6-0.1-4.2,0.9-5.1,3.2c-1.5,3.5-2.8,7.1-4.2,10.6c-0.4,1-0.8,2-1.2,3c-2.3,5.2-3.4,5.8-10.2,5.1c0-2.6-0.3-5.3,0-7.9
	c1-9,2.3-18,3.4-27c0.3-2.6,1.5-3.6,4-4.2c10.6-2.3,21.1-5,31.7-7.2c6.7-1.4,13.5-1.1,20.2,0.3c1.8,0.4,3.7,0.4,5.6,0.7
	c1.2,0.2,2.4,0.3,3.6,0.7c8.4,3.1,16.8,6.1,25.1,9.3c1.9,0.7,3.6,1.8,5.3,2.8c1.8,1.1,3.7,1.7,5.8,0.9c4.5-1.6,8.9-3.2,13.3-5
	c1.6-0.7,2.9-1.9,4.4-2.9c2-1.4,4.1-2.6,6-4.1c0.8-0.7,1.8-2.1,1.6-2.8c-0.5-1.8-2.2-1.7-3.7-1.4c-0.9,0.2-1.7,0.7-2.6,1.2
	c-2.9,1.5-5.7,3.3-8.7,4.5c-8.1,3-16.3,3.6-24.6,0.4c-8-3.1-15.9-6.2-24-8.9c-5.7-1.9-11.5-3.3-17.6-2.3c-8.1,1.4-16.3,2.9-24.4,4.5
	c-4,0.8-7.9,1.9-11.9,2.8c-1.2,0.3-2.4,0.4-3.6,0.5c-3,0.2-3.9-0.6-3.3-3.5c0.7-3.5,1.6-6.9,2.6-10.2c2.7-9.2,5.5-18.4,8.4-27.6
	c0.6-2.1,1.4-4.1,2.4-6c2.3-4.3,4.7-8.6,7.4-12.7c1.5-2.2,3.5-4.1,5.4-6c0.7-0.7,1.8-0.8,3.4-1.5c-0.6,2.9-1.1,5.1-1.5,7.2
	c-1.1,5.9,0.1,11.3,3.8,16.1c1.7,2.2,3.6,4.4,5.5,6.5c0.8,0.8,2,1.5,3.1,1.7c0.8,0.1,2-0.4,2.4-1c0.4-0.6,0.1-1.9-0.3-2.5
	c-1.1-1.6-2.4-2.9-3.6-4.4c-1.3-1.5-1.6-3.2-1.5-5.3c0.3-6.4-0.1-12.7-3.6-18.3c-0.1-0.2-0.1-0.5-0.3-1.5c0.2-0.1,0.8-0.5,1.4-0.8
	c5.4-2.3,10.7-4,16.8-3.8c6.3,0.3,11.4,2.3,16.3,6.1c2.8,2.2,6.5,3.3,10,4.4c4.1,1.2,8.5,2.1,12.7,2.6c3.6,0.4,7.3,0,10.9-0.2
	c3.9-0.2,7.8-1,11.7-0.9c4.6,0.1,8.9-0.8,13.1-2.5c6.7-2.7,13.1-5.8,17.3-12.2c2-3.1,2.8-6.4,3.7-9.8c0.4-1.5,0.8-3,1.5-5.2
	c1.3,1.2,2.3,1.8,2.7,2.6c2.1,3.9,3,7.7,0.5,11.9c-1.2,2.1-1.4,4.9-1.8,7.4c-0.1,0.8,0.9,2.3,1.5,2.4c1,0.1,2.2-0.6,3.1-1.3
	c0.5-0.4,0.5-1.5,0.8-2.2c0.9-2.3,1.5-4.7,2.8-6.7c1.7-2.8,2.1-5.6,1.1-8.6c-2-5.9-4.5-11.6-9-16.2c-1-1.1-1.6-2.8-1.8-4.3
	c-1.5-11.5-6.5-21.2-14.1-29.7c-0.4-0.4-0.7-0.9-1.1-1.1c-6-3.6-12.1-7.2-19.2-8.1c-1.8-0.3-3.4-0.6-4.8-1.9
	c-0.7-0.7-1.5-1.3-2.3-1.6c-5-1.7-4-7-1.3-9.6c4-3.8,8.4-7.1,13.9-8.1c5.7-1,11.4-2.2,17.3-1.3c8.8,1.3,15.9,5,21.1,12.3
	c2,2.7,4.4,5.2,6.6,7.7c1.1,1.2,1.8,2.4,1,4c-1.2,2.3,0.1,3.8,1.5,5.4c3.9,4.5,7.6,9.1,11.5,13.6c5.9,7,8.1,15.6,9.6,24.3
	c1.2,6.8,0.8,13.7-0.5,20.2c-1.5,7.4-5.5,13.9-13.2,16.9c-1.5,0.6-3.1,1.1-4.5,2c-0.7,0.5-1.4,1.9-1.2,2.6c0.2,0.8,1.6,1.8,2.3,1.7
	c2.1-0.3,4.2-0.9,6.1-1.9c6-3,10.4-7.7,13.7-13.5c1.2-2.1,2.4-4.4,2.7-6.8c1.7-12.8,1.1-25.5-3.7-37.7c-2.7-6.9-7.4-12.5-12.2-18.1
	c-1.5-1.7-3.5-3-4.3-6.5c3,0.2,5.3,0.2,7.5,0.4c5.2,0.4,10.1,2.1,14.9,4.1c5.9,2.4,11.7,5,17.6,7.2c8.8,3.4,15.9,9.3,23.2,14.8
	c0.3,0.2,0.6,0.5,0.9,0.8c4.6,5.7,9.2,11.3,13.7,17c6.3,8,10.2,17.2,13.3,26.8c2.2,7,4.5,13.9,6.6,21c1.2,4.2,1.9,8.5,3,12.7
	c2.1,8.1,4.2,16.3,6.5,24.4c1.3,4.5,2.2,9,2.1,13.6c-0.1,5.7-0.5,11.4-0.7,17C634.2,388.4,634.2,389.9,634.2,391.4z M391.5,618.9
	c-0.1-0.7,0.3-1.5,0.6-2.6c0.8,0.6,1.4,0.9,1.7,1.3c1.8,2.1,3.5,4.4,5.5,6.5c1.6,1.7,2.1,3.1,2,5.6c-0.4,5.9-1.9,11.4-3.5,17
	c-0.5,1.7-1.4,3.4-2.1,5.1c-0.4,0-0.7-0.1-1.1-0.1c-0.3-0.6-0.8-1.1-0.8-1.7C393.1,639.6,392.3,629.2,391.5,618.9z"/>
</svg>
