<?xml version="1.0" encoding="utf-8"?>
<!-- Generator: Adobe Illustrator 17.1.0, SVG Export Plug-In . SVG Version: 6.00 Build 0)  -->
<!DOCTYPE svg PUBLIC "-//W3C//DTD SVG 1.1//EN" "http://www.w3.org/Graphics/SVG/1.1/DTD/svg11.dtd">
<svg version="1.1" id="Layer_1" xmlns="http://www.w3.org/2000/svg" xmlns:xlink="http://www.w3.org/1999/xlink" x="0px" y="0px"
	 viewBox="0 0 506.6 364.8" enable-background="new 0 0 506.6 364.8" xml:space="preserve">
<rect x="0" y="0" fill="#9BCE75" stroke="#000000" stroke-miterlimit="10" width="506.6" height="364.8"/>
<path fill="#2A6733" d="M3.2,284.8c8.7,0.7,15.1,5.6,20.2,12c4.3,5.4,7.8,11.4,11.7,17.3c-1.9-7.7-4.8-15.2-9.7-21.4
	c-4.8-6.2-10.6-11.7-15.8-18.2c3.3,1.4,7.1,2.3,10,4.3c6.2,4.4,12.2,8.9,18.8,12.8c9.5,5.6,14.4,15.2,18.2,25.3
	c0.4,1.2,0.8,2.3,2,3.4c-0.5-5.5-0.9-11-1.6-16.5c-0.7-5.5-1.5-11-2.5-16.5c-1-5.6-2.3-11.2-3.5-16.7c-1.2-5.4-2.5-10.7-3.1-16.3
	c6.6,6.4,9.1,14.9,12.4,22.9c0.4-0.1,0.7-0.2,1.1-0.3c-2.5-11-5-22-7.5-32.9c0.4-0.2,0.9-0.3,1.3-0.5c6.9,8.4,9.6,18.9,14.1,28.6
	c-0.8-3.7-1.6-7.5-2.4-11.2c0.4-0.1,0.9-0.3,1.3-0.4c7,9.1,9.8,20.2,14,31.2c0.6-2.1,1.3-4.2,1.6-6.4c0.9-6.3,2.2-12.6,2.1-18.9
	c0-4-2.5-7.9-7.1-8.7c-8.5-1.4-14-6.8-18.5-13.3c-6.4-9.1-12.2-18.6-18.1-28.1c-1.4-2.2-2.4-3.2-5.2-2.4c-3.3,0.9-6.8,1.3-10.3,1.6
	c-2.4,0.2-4.8-0.2-8.2-0.3c5.4-6.8,11.8-10.5,18.4-13.7c1.4-0.6,4.2,1.1,6,2.2c14,9.2,25.9,20.6,36.1,33.9c0.8,1.1,1.6,2.3,2.5,3.4
	c0.1,0.2,0.4,0.3,1.5,1c-1.1-5.7-1.9-10.8-3-15.8c-1.1-5.2-2.2-10.4-4.1-15.3c-1-2.6-3.3-4.9-5.5-6.7c-11.9-9.5-21.2-20.6-23.9-36.7
	c10.9,3.4,15.7,12.1,21.9,19.8c-1.2-4.1-2.4-8.2-3.5-12.4c-1.7-6.3-3.2-12.6-4.9-19c-0.3-1.1-0.5-2.6-1.3-3c-5.2-2.8-6-8-7.5-12.9
	c-1.2-3.9-2.7-7.7-3.8-10.9c0.5-1.4,0.9-2.6,1.1-3.1c2,3.3,4.4,7.2,6.7,11.2c0.4-0.2,0.9-0.3,1.3-0.5c0-2.7-0.1-5.4,0-8.1
	c0.2-7.1,0.6-14.2,0.5-21.3c0-2.5-0.6-5.8-2.3-7.2c-4.3-3.7-4.5-8.3-4.8-13.2c-0.2-3.5-0.9-7-1.3-10.2c0.6-0.9,1.3-1.9,1.3-2
	c2.8,6.6,5.8,13.9,8.8,20.9c2.1-7.2,4.4-15,6.7-22.8c0.2,0.1,0.4,0.1,0.6,0.2c-2.4,11.2-4.9,22.4-7.3,33.6c0.5,0.2,1.1,0.4,1.6,0.6
	c5.1-4,10.3-8.1,15.4-12.1c-0.7-0.7-1.4-1.3-2.1-2c0.6,0.8,1.2,1.5,1.3,1.7c-1.8,3.9-3.2,7.7-5.3,11c-2,3-5,5.3-7.2,8.2
	c-1.4,1.8-3.3,4.2-3.2,6.2c0.4,8.2,1.2,16.4,2.4,24.5c0.6,4,2.6,7.8,3.4,11.8c0.5,2.8,0.1,5.8,0.9,8.8c0.7-36,15.9-66.4,36.1-94.8
	c-9.7,16.3-19.8,32.5-25.6,50.7c0.3,0.3,0.6,0.6,0.8,0.9c4.2-3.1,8.3-6.2,12.5-9.2c0.1,0.1,0.6,0.9,0.7,1.1c-2.2,3.5-4,7-6.5,9.9
	c-2.1,2.5-5.1,4.3-7.6,6.6c-1.4,1.4-3.1,2.9-3.6,4.7c-0.9,3.1-1.1,6.5-1.2,10.1c2.5-6.9,8.7-7.5,14.3-9.4c1.9-0.6,3.5-2.1,5.2-3.2
	c0.1,0.5,0.3,1.3,0.5,2c0.5-0.5,1.5-1,1.6-1.5c0.3-2.2,0.3-4.4,0.5-6.7c1.6-26,7.3-50.9,20.1-73.9c1.1-2,1.7-3.7,0.7-6.2
	c-0.6-1.6-0.1-4.2,0.9-5.8c6.8-10.2,13.8-20.3,20.8-30.3c2.2-3.2,6-4,8.7-1.7c2.4,2.1,2.7,5.2,0.9,7.8c-7.2,10.7-14.6,21.4-22.1,32
	c-0.8,1.1-2.8,2.3-3.8,2.1c-3.6-1-4.3,1.6-5.4,3.7C104.6,75.5,99,97.8,97.7,121.1c-0.4,6.7-0.7,13.4-0.2,20.2
	c2.2-7,3.9-14.2,6.9-20.8c4.2-9.2,9.3-18,14.1-27c1-1.8,2.2-3.1,1-5.6c-0.7-1.5,0.1-4.5,1.3-6c6.2-7.5,12.8-14.7,19.3-22.1
	c1.8-2,3.7-3.4,6.6-1.9c0.7,0.3,2.1-0.2,2.8-0.7c1.6-1.3,3.1-2.8,4.9-3.9c-1.3,1.4-2.7,2.7-3.9,4.2c-0.7,0.8-1.8,1.9-1.6,2.7
	c0.8,4.1-1.8,6.5-4.1,9.1c-4.9,5.5-9.6,11.3-14.7,16.6c-2.1,2.2-5,3.5-7.5,5.3c-0.8,0.5-1.5,1.2-2,2c-12.2,19.1-19.3,40.1-22.4,62.3
	c-1,6.9,0.6,14.2,0.7,21.3c0.1,14.5,0,29,0,43.4c0.5,0.2,1,0.3,1.5,0.5c0.9-2.3,1.9-4.6,2.8-6.9c0.6-1.6,0.6-3.3,1.3-4.8
	c5-10.1,11.6-19,19.6-26.9c1.2-1.2,2.8-2.1,5-3.8c-0.2,2.6,0,4.2-0.4,5.7c-3.2,11-7.1,21.7-13.8,31.1c-1.3,1.8-3.2,3.7-5.2,4.6
	c-8.1,3.6-11.2,10-11.9,18.5c-0.9,10.4-2.7,20.7-3.6,31.1c-0.5,5.6-0.3,11.5,0.7,17c0.5,3.1,3.3,5.8,5.4,9.2
	c1.2-5.7,2.5-11.6,3.7-17.2c2.4,2.7,3.8,11.2,2.9,18.3c-0.8,6.3-1.5,12.6-2.3,18.8c0.5,0.1,1.1,0.2,1.6,0.2c1.3-8.5,2.6-17,3.9-25.6
	c0.2-0.1,0.4-0.1,0.6-0.2c0.7,2.2,1.4,4.5,2.5,7.8c0.9-7.3,1.7-13.5,2.4-19.7c0.7,0,1.5,0,2.2,0c1.1,8.5,2.3,17,3.4,25.4
	c0.7-11.7,0.4-23.5,3.8-35.1c2.7,10.2,6,20.1,6.5,30.7c0.4,10.5,1,21,1.5,31.5c0.6,0,1.1,0.1,1.7,0.1c1.1-8.8,2.8-17.5,3-26.3
	c0.2-8.7-1.2-17.4-1.9-26.8c7.1,10,7.7,21,8.7,32.3c1.6-4.4,3.3-8.8,4.9-13.1c0.5,0.1,1,0.2,1.6,0.3c-0.6,6-1.2,12-1.8,18
	c0.5,0.1,1,0.2,1.5,0.3c1.8-6.4,3.3-12.9,5.4-19.3c3.3-10.1,6.9-20.2,10.6-30.2c0.7-1.8,2.2-3.4,3.3-5c0.4,0.1,0.8,0.3,1.1,0.4
	c-0.4,2.5-0.8,5-1.3,7.4c-1.4,6.2-3.1,12.4-4.4,18.7c-1.9,8.5-1.8,9,3.2,19.1c-0.4-2.2-0.8-4.3-1.1-6.5c-0.4-2.3-0.7-4.6-1-6.8
	c0.4-0.1,0.8-0.3,1.2-0.4c1.5,3.2,3.1,6.4,4.6,9.6c0.1,0,0.3-0.1,0.4-0.1c-1.2-7-2.4-13.9-3.6-20.9c0.4-0.2,0.8-0.3,1.2-0.5
	c1,1.7,2.2,3.3,2.9,5.1c7.3,18.1,11.7,36.8,12.9,56.3c0.2,4.1,1,4.5,6.7,3.2c-2.6-24.2-11.4-47-16.6-70.6c7.6,4.3,11,11.4,14.1,18.8
	c2.8,6.8,5.4,13.7,9,20.3c-4.5-16.3-9-32.6-13.6-48.9c0.5-0.2,1.1-0.4,1.6-0.5c7.8,11.7,12.9,24.8,17.9,39.2
	c1.8-11,2.5-21.3,9.9-29.4c-1.2,15.8-4.5,31.5,1,47.3c0.4-3.2,1.1-6.3,1.1-9.5c0.2-8.7-0.6-17.6,0.3-26.2c0.7-6.3,3.5-12.5,5.5-18.6
	c0.4-1.2,1.4-2.2,2.7-3.1c-1.4,11.4-4,22.6-1.7,34.4c2.7-5.4,5.5-10.7,8.2-16.1c2.3,6.5,9.3,4.9,11.7,9.7c2.9-5.4,0.8-8.5-3-11.1
	c-2.2-1.4-4.1-3.2-6.1-4.8c0.2-0.5,0.5-1,0.7-1.5c3.5,1.5,7.5,2.4,10.3,4.7c6.6,5.3,14,9.2,21,13.9c5.3,3.5,8.5,10.3,12.1,16
	c2.1,3.2,3.1,7.1,5,10.6c0.1-22.2-5.7-43.5-10.1-65.1c5.9,4.3,7.3,11.3,10.6,17.1c0.3-0.1,0.7-0.2,1-0.3c-3.3-13.9-6.7-27.8-10-41.7
	c0.5-0.2,1-0.4,1.5-0.6c8.4,10,12.1,22.5,16.8,34.8c0.3-1.2,0.6-2.1,1.1-4.3c12.9,21.5,16.9,44,18.3,67.5c5-12.6,7.5-25.8,8-39.6
	c2.5,2.1,2.5,2.1,5,14.9c1.1-8.2,2.1-16.4,3.2-24.5c0.4,0,0.8-0.1,1.2-0.1c0.6,3.4,1.6,6.8,1.9,10.3c1,12.9-2.1,25.2-5.4,37.4
	c-1,3.7-1.9,7.5-2.5,11.3c5.4-15.1,10.4-30.3,11.7-46.7c0.4,1,0.9,2.1,1.3,3.1c0.4,1,0.7,2,1.1,3.3c4-7.7,7.8-15,11.6-22.3
	c0.5,0.1,1,0.3,1.5,0.4c-0.2,1.6-0.1,3.4-0.5,4.9c-4.1,15.1-8.4,30.2-12.3,45.4c-1.7,6.7-2.7,13.6-4,20.3c6.2,1.8,6.8,1.3,7.2-4.6
	c1.3-19.3,5.7-37.9,13.2-55.7c0.6-1.3,1.4-2.6,2.1-3.9c0.5,0.1,0.9,0.2,1.4,0.4c-1.2,6.8-2.3,13.6-3.5,20.4c0.2,0.1,0.3,0.1,0.5,0.2
	c1.4-2.9,2.8-5.9,4.2-8.8c0.4,0.1,0.8,0.2,1.2,0.2c-0.6,4.2-1.1,8.4-1.8,13.6c3.4-6.6,5.2-12.3,3.3-18.8c-2-7.1-3.5-14.3-5.1-21.5
	c-0.4-1.7-0.6-3.5,0.1-5.7c1.1,1.6,2.4,3,3.3,4.7c6.5,12.2,9.8,25.4,12.5,38.8c0.8,3.8,2.9,7.3,5.1,10.7c-0.6-5.9-1.2-11.8-1.9-17.7
	c0.5-0.2,1-0.3,1.5-0.5c1.7,4.3,3.4,8.5,5.4,13.5c0.7-11.7,1.2-22.8,8.5-32.2c-4,17.8-3,35.2,2.1,52.6c1.4-21,1.3-42.2,8.5-62.5
	c3.4,11.4,3,23.3,4.5,35c0-8.1,0-16.2,0-24.8c0.8-0.2,2.9,3.5,3.4-0.4c3.8,10.9,7.5,21.6,11.3,32.2c0.6-0.2,1.1-0.3,1.7-0.5
	c-4.2-15-8.4-30-12.5-45c0.6-0.2,1.1-0.4,1.7-0.6c7.4,11.7,13,24.4,17.8,37.6c1.7-9.8,3-19.6,10-27.7c0,2.3,0.4,4.7-0.1,6.9
	c-2.6,12.3-2.9,24.6-0.9,37c0.2,1.2,0.6,2.3,1,3.8c3.7-5.5,1.8-11,1.5-16.3c-0.7-12.4,0.2-24.5,5.3-36c0.9-1.9,2-3.8,3.7-5.3
	c-1,11.3-2.1,22.7-3.1,34c0.5,0.1,0.9,0.1,1.4,0.2c2.9-5.3,5.8-10.7,8.7-16c0.4,0.2,0.9,0.3,1.3,0.5c-0.3,1.8-0.5,3.7-1,5.4
	c-1.8,6.4-3.2,13-5.7,19.2c-2.9,7.4-0.6,14.1,2,20.9c0.6-7.8,1-15.7,2-23.5c0.6-4.5-0.4-9.7,5.3-13.4c0.6,4.8,1.6,9,1.7,13.3
	c0.5,12.3,0.6,24.5,0.9,36.8c0,1-0.1,2,0.1,2.9c0.1,0.5,0.9,1.2,1.3,1.2c0.5,0,1.1-0.8,1.2-1.3c0.2-0.9,0.1-1.9,0.1-2.9
	c-0.5-13.5-1-27-1.6-40.9c3.1-0.5,3.9-3.3,4.2-6.9c0.3-3.8,1.1-7.5,1.8-11.2c0.6,0,1.3,0,1.9,0c1.6,17.4,3.1,34.8,4.7,52.2
	c7.1-14.9,1.9-30,1.4-45.1c0.5-0.1,1-0.3,1.5-0.4c1.9,4.7,3.8,9.5,5.7,14.4c1.7-3.7,3.3-7.3,5-10.9c0.4,0.1,0.8,0.2,1.2,0.3
	c-0.3,2.6-0.2,5.3-1,7.8c-3.6,11-1.9,22-0.5,33.1c0.4,3,0.2,6.2,0.8,9.1c0.2,1.1,1.8,2.7,2.9,2.8c3.2,0.4,6.4,0.1,9.9,0.1
	c0,3.7,0,7,0,10.6c-160.1,0-320.1,0-480.3,0c0-3.4,0-6.7,0-10.3c2.5-0.2,4.9-0.3,7.7-0.5c-0.4-12.1-2.6-23.6-7.7-34.4
	c-4.8-10.3-11.5-19-21.5-24.7C3.2,286,3.2,285.4,3.2,284.8z M81.6,210.8c0.3,0,0.6,0.1,0.9,0.1c0.2-2.3,0.3-4.6,0.5-6.9
	c1.2-12,1.9-24.2,9.9-34.3c0.5-0.6,0.9-1.5,0.9-2.2c0.1-10.5,0-21,0-31.6c-0.5-0.2-1-0.5-1.6-0.7c-2,1.5-4.1,2.9-5.9,4.7
	c-3.4,3.4-6.2,7.6-12,7.1c-1-0.1-3.2,2-3.2,3.2c0,10.7-1,21.5,0.8,31.9C73.6,192,78.2,201.3,81.6,210.8z M36.1,295.9
	c8.4,15.5,10.8,32.3,11.3,49.3c5.7,1.3,7.1,0.8,6.6-2.4c-1.1-7.9-1.9-16-3.9-23.7C47.8,310.2,43.3,302.1,36.1,295.9z M265.8,301.8
	c0.3,1.9,0.4,3.8,1,5.5c3.7,10.7,5.7,21.7,5.9,33.1c0.1,6,0.4,6.2,6.6,4.8C280.5,333,274.7,309,265.8,301.8z M90,247.1
	c0.5,0,0.9,0,1.4,0c1.3-17.1,2.5-34.2,3.8-52c-3.6,8.7-6.7,16.4-9.9,24.1c-0.4,1-0.8,2.2-0.6,3.2C86.4,230.7,88.2,238.9,90,247.1z
	 M239,345.7c0.7,0,1.3,0,2,0c1.9-15.2-0.1-30.3-1.9-45.9c1.3,0.4,1.8,0.7,2.4,0.9c0.3-0.2,0.7-0.4,1-0.7c-1.5-2.3-3.1-4.7-5.2-7.8
	C238,310.8,238.5,328.3,239,345.7z M365.4,311.9c-0.5-0.1-1-0.1-1.5-0.2c-1.6,11.2-3.2,22.5-4.7,33.5c5.1,1.7,6.4-0.2,6.5-3.9
	c0-7.1,0.2-14.2,0.2-21.3C365.9,317.3,365.6,314.6,365.4,311.9z M167.9,345.4c-1.7-11.8-3.4-23.2-5.1-34.7c-0.5,0-1,0.1-1.5,0.1
	c0,10.1-0.1,20.2,0,30.3C161.4,346,161.7,346.1,167.9,345.4z M112,308.4c0.2,0.1,0.4,0.1,0.6,0.2c-1,4.7-1.9,9.5-2.9,14.2
	c-1.4,6.6-2.9,13.2-4.2,19.9c-0.4,2.2,0.6,3.3,3,3.3c2.1-0.1,3.5-0.4,3.5-2.9C112,331.5,112,319.9,112,308.4z M415.4,312.6
	c-0.1,0.1-0.3,0.1-0.4,0.2c0,9.4,0,18.8,0,28.2c0,5.2,0.6,5.6,6.9,3.9C419.8,334.2,417.6,323.4,415.4,312.6z M233.3,289.3
	c-0.4,0.2-0.8,0.3-1.3,0.5c-2.3,7.7-4.9,15.3-6.6,23.1c-1.2,5.3,1.3,10.4,3.2,15.3c0.7-6.5,0.7-12.9,1.7-19.2
	c0.9-5.7-0.5-12.1,4.1-16.9C234.8,291.8,233.8,290.3,233.3,289.3z M301.1,297.5c0,16,0,32,0,47.9c0.5,0,1,0,1.6,0
	C303.7,329.5,303.6,313.6,301.1,297.5z M250.8,312.6c-0.4,0.1-0.8,0.1-1.1,0.2c1.2,6.9,2.4,13.8,3.6,20.6
	C256.7,325.7,253.8,319.1,250.8,312.6z M86,329.1c0.4,0,0.9,0,1.3,0c0-8.6,0-17.2,0-25.7C83,311.8,86.8,320.5,86,329.1z
	 M254.6,303.7c0.4-0.2,0.8-0.4,1.3-0.6c-1.8-4-3.6-8.1-5.3-12.1C247.8,297.1,252,300.1,254.6,303.7z M224,345.3
	c-0.9-3.5-1.9-7-3.1-11.5C218.2,343.1,219,345.7,224,345.3z M446.7,334.9c-0.5,0-1,0.1-1.5,0.1c0.2,3.3,0.3,6.5,0.7,9.7
	c0.1,0.5,2,0.7,3.8,1.2C448.6,341.6,447.7,338.3,446.7,334.9z M89.9,184.7c0.5,0.1,1,0.2,1.4,0.2c0.6-3.7,1.3-7.4,1.9-11.1
	c-0.5-0.1-1-0.2-1.5-0.2C91.1,177.3,90.5,181,89.9,184.7z M50.2,170.6c-0.5,0.4-0.9,0.8-1.4,1.1c2.1,2.9,4.3,5.7,6.4,8.6
	c0.4-0.3,0.8-0.6,1.2-0.9C54.4,176.5,52.3,173.6,50.2,170.6z"/>
</svg>
